<?xml version="1.0" encoding="utf-8"?>
<!-- Generator: Adobe Illustrator 24.3.0, SVG Export Plug-In . SVG Version: 6.00 Build 0)  -->
<svg version="1.1" xmlns="http://www.w3.org/2000/svg" xmlns:xlink="http://www.w3.org/1999/xlink" x="0px" y="0px"
	 viewBox="0 0 1000 1000" style="enable-background:new 0 0 1000 1000;" xml:space="preserve">
<style type="text/css">
	.st0{display:none;}
	.st1{display:inline;fill:#0A2523;}
	.st2{fill:#0A2523;}
	.st3{fill:#169EC3;}
	.st4{fill:none;stroke:#169EC3;stroke-width:30;stroke-miterlimit:10;}
</style>
<g id="Capa_1" class="st0">
	<path class="st1" d="M782.54,1000H217.46C97.36,1000,0,902.64,0,782.54V217.46C0,97.36,97.36,0,217.46,0h565.08
		C902.64,0,1000,97.36,1000,217.46v565.08C1000,902.64,902.64,1000,782.54,1000z"/>
</g>
<g id="Capa_2">
	<rect x="-266" y="-19.14" class="st2" width="79.71" height="79.71"/>
	<rect x="-266" y="94.43" class="st3" width="79.71" height="79.71"/>
	<path class="st4" d="M776.59,971.29H221.38c-19.8,0-35.84-16.05-35.84-35.84V63.41c0-19.8,16.05-35.84,35.84-35.84h424.08
		c92.22,0,166.97,74.76,166.97,166.97v740.9C812.43,955.24,796.39,971.29,776.59,971.29z"/>
	<path class="st3" d="M391.17,698.45h-30.03c-8.63,0-15.62-6.99-15.62-15.62V339.26h61.27v343.56
		C406.8,691.46,399.8,698.45,391.17,698.45z"/>
	<path class="st3" d="M640.55,687.07H608.6c-8.62,0-15.61-6.99-15.61-15.61v-332.2h63.17v332.2
		C656.16,680.08,649.17,687.07,640.55,687.07z"/>
	<path class="st3" d="M532.73,698.45L410.71,374.72c-2.93-7.78,1-16.47,8.78-19.41l28.48-10.73c7.78-2.93,16.47,1,19.41,8.78
		L589.4,677.09L532.73,698.45z"/>
</g>
<g id="Guías" class="st0">
</g>
</svg>
